<?xml version="1.0" encoding="UTF-8"?><svg id="a" xmlns="http://www.w3.org/2000/svg" viewBox="0 0 128 128"><path d="M114.85,74.63c0,.38-.05,.92-.16,1.62-.11,.71-.25,1.46-.42,2.25-.17,.79-.36,1.54-.55,2.25-.19,.71-.38,1.25-.55,1.62-1.64,2.92-3.56,5.7-5.76,8.34-2.2,2.65-4.56,4.99-7.08,7.03-2.52,2.04-5.17,3.67-7.95,4.88-2.78,1.21-5.57,1.81-8.38,1.81s-5.09-.38-7.11-1.12-3.74-1.74-5.14-2.97c-1.4-1.23-2.54-2.63-3.43-4.22-.88-1.58-1.58-3.2-2.1-4.84-.52-1.65-.86-3.25-1.04-4.81-.17-1.56-.26-2.97-.26-4.22,0-.62,.05-1.41,.16-2.34,.11-.94,.24-1.92,.39-2.94,.15-1.02,.28-2.02,.39-3,.11-.98,.16-1.78,.16-2.41,0-.83-.19-1.25-.58-1.25-1.12,1.04-2.19,2.15-3.2,3.31-1.01,1.17-2.03,2.44-3.04,3.81-1.01,1.38-2.06,2.89-3.14,4.53-1.08,1.65-2.26,3.47-3.56,5.47-1.16,1.79-2.39,3.75-3.69,5.88-1.29,2.12-2.61,4.27-3.94,6.44-1.34,2.17-2.68,4.27-4.04,6.31-1.36,2.04-2.68,3.84-3.98,5.41-1.29,1.56-2.51,2.82-3.65,3.78-1.14,.96-2.17,1.44-3.07,1.44-1.03,0-1.9-.02-2.59-.06-.69-.04-1.27-.12-1.75-.22-.47-.1-.91-.22-1.29-.34s-.8-.27-1.23-.44c-.43-1.54-.78-3.22-1.04-5.03s-.44-3.56-.55-5.25-.17-3.22-.19-4.59c-.02-1.38-.03-2.4-.03-3.06,0-6.08,.51-12.52,1.52-19.31,1.01-6.79,2.19-14,3.52-21.62,1.03-5.83,2.04-11.91,3.01-18.22s1.8-12.86,2.49-19.66c.3-1.42,.81-2.69,1.52-3.81,.71-1.12,1.49-2.07,2.33-2.84,.84-.77,1.66-1.35,2.46-1.75,.8-.4,1.46-.59,1.97-.59,.91,0,1.77,.3,2.59,.91,.82,.6,1.55,1.41,2.2,2.41,.65,1,1.15,2.12,1.52,3.34,.37,1.23,.55,2.47,.55,3.72,0,.42-.02,.83-.06,1.25-.04,.42-.11,.83-.19,1.25-.04,.17-.15,.69-.32,1.56-.17,.88-.38,1.94-.62,3.19s-.5,2.59-.78,4.03c-.28,1.44-.54,2.82-.78,4.16-.24,1.33-.44,2.51-.61,3.53-.17,1.02-.3,1.72-.39,2.09-.04,.38-.18,1.22-.42,2.53-.24,1.31-.52,2.93-.84,4.84-.32,1.92-.68,4.03-1.07,6.34-.39,2.31-.79,4.67-1.2,7.06-.41,2.4-.81,4.75-1.2,7.06-.39,2.31-.74,4.41-1.07,6.28s-.58,3.46-.78,4.75c-.19,1.29-.31,2.12-.36,2.5-.04,.46-.12,1.08-.23,1.88-.11,.79-.23,1.66-.36,2.59-.13,.94-.28,1.92-.45,2.94-.17,1.02-.32,1.97-.45,2.84,.39-.42,1.06-1.28,2-2.59,.95-1.31,2.03-2.84,3.23-4.59,1.21-1.75,2.49-3.61,3.85-5.59,1.36-1.98,2.64-3.84,3.85-5.59s2.27-3.28,3.2-4.59c.93-1.31,1.54-2.2,1.84-2.66,.6-.88,1.39-1.83,2.36-2.88,.97-1.04,2-2.07,3.1-3.09,1.1-1.02,2.2-2,3.3-2.94,1.1-.94,2.08-1.72,2.94-2.34,1.9-1.42,3.66-2.28,5.3-2.59,1.64-.31,3.19-.47,4.66-.47,.69,0,1.36,.21,2,.62,.65,.42,1.23,1.03,1.75,1.84,.52,.81,.94,1.82,1.26,3.03,.32,1.21,.49,2.62,.49,4.25,0,.88-.09,1.93-.26,3.16-.17,1.23-.37,2.56-.58,4-.22,1.44-.41,2.93-.58,4.47-.17,1.54-.26,3.02-.26,4.44,0,1,.07,2.2,.23,3.59,.15,1.4,.46,2.73,.94,4,.47,1.27,1.13,2.35,1.97,3.25,.84,.9,1.93,1.34,3.27,1.34,3.53,0,7.12-1.21,10.77-3.62,3.64-2.42,7.53-6.17,11.67-11.25,1.16-1.46,2.28-2.48,3.36-3.06,1.08-.58,2-.88,2.78-.88,.56,0,.94,.18,1.13,.53,.19,.35,.29,.99,.29,1.91Z" style="fill:#5d1380;"/></svg>